<?xml version="1.0" encoding="windows-1252"?>
<!-- Generator: Adobe Illustrator 19.0.0, SVG Export Plug-In . SVG Version: 6.00 Build 0)  -->
<svg version="1.1" id="Layer_1" xmlns="http://www.w3.org/2000/svg" xmlns:xlink="http://www.w3.org/1999/xlink" x="0px" y="0px" viewBox="0 0 408.76 408.76" style="enable-background:new 0 0 408.76 408.76;" xml:space="preserve">
<g>
	<path style="fill:#FFBE00;" d="M204.385,408.76c-58.121,0-113.675-24.867-152.418-68.228   C18.46,303.057,0.005,254.703,0.005,204.381C0.005,91.685,91.69,0,204.385,0c50.317,0,98.674,18.455,136.163,51.964   c43.348,38.762,68.207,94.316,68.207,152.417C408.755,317.077,317.076,408.76,204.385,408.76"/>
	<path style="fill:#F4502A;" d="M377.754,204.381c0,18.08-2.77,35.52-7.909,51.899c-20.39,65.09-78.11,113.66-148.081,120.61   c-5.719,0.58-11.51,0.87-17.379,0.87c-51.392,0-97.561-22.361-129.301-57.88c-0.26-0.29-0.521-0.589-0.79-0.879   c-26.95-30.56-43.29-70.679-43.29-114.62c0-95.751,77.621-173.379,173.381-173.379c43.95,0,84.069,16.35,114.629,43.289   c0.29,0.271,0.591,0.53,0.881,0.79C355.404,106.84,377.754,152.991,377.754,204.381"/>
	<path style="fill:#C29100;" d="M74.473,319.195c1.858,2.099,3.763,4.152,5.719,6.159c-1.742-1.789-3.443-3.612-5.107-5.474   C74.882,319.654,74.68,319.423,74.473,319.195 M31.026,207.148c0,0.016,0,0.028,0.001,0.044   C31.026,207.178,31.026,207.161,31.026,207.148 M31.017,206.543c0,0.003,0,0.012,0,0.015   C31.018,206.553,31.017,206.549,31.017,206.543 M31.013,206.097c0.001,0.065,0.001,0.131,0.002,0.196   C31.014,206.228,31.013,206.161,31.013,206.097 M31.008,205.517c0,0.087,0.001,0.177,0.002,0.265   C31.009,205.693,31.008,205.605,31.008,205.517 M31.005,204.945c0,0.136,0.001,0.265,0.002,0.401   C31.006,205.212,31.005,205.08,31.005,204.945 M31.004,204.397c0,0.143,0,0.282,0.001,0.425   C31.004,204.68,31.004,204.539,31.004,204.397 M219.459,31.647c0.005,0,0.008,0,0.013,0.001   C219.468,31.648,219.462,31.648,219.459,31.647 M218.845,31.596c0.013,0.001,0.025,0.002,0.038,0.003   C218.871,31.598,218.858,31.597,218.845,31.596 M217.905,31.521c0.021,0.002,0.039,0.003,0.06,0.005   C217.946,31.524,217.924,31.522,217.905,31.521 M217.314,31.476c0.024,0.002,0.044,0.003,0.067,0.005   C217.359,31.479,217.336,31.478,217.314,31.476 M216.35,31.408c0.037,0.002,0.073,0.005,0.11,0.008   C216.422,31.413,216.388,31.41,216.35,31.408 M215.775,31.37c0.037,0.002,0.08,0.005,0.117,0.007   C215.854,31.375,215.814,31.372,215.775,31.37 M215.472,31.35c0.01,0,0.019,0.001,0.029,0.002   C215.491,31.351,215.481,31.351,215.472,31.35 M214.807,31.31c0.048,0.002,0.09,0.005,0.138,0.008   C214.9,31.315,214.851,31.312,214.807,31.31 M214.244,31.277c0.048,0.003,0.088,0.005,0.136,0.008   C214.335,31.282,214.289,31.279,214.244,31.277 M213.791,31.252c0.066,0.004,0.132,0.007,0.198,0.011   C213.925,31.259,213.855,31.255,213.791,31.252 M213.245,31.224c0.066,0.003,0.134,0.007,0.2,0.01   C213.378,31.23,213.312,31.227,213.245,31.224 M212.683,31.196c0.085,0.004,0.171,0.008,0.256,0.012   C212.852,31.205,212.77,31.201,212.683,31.196 M212.179,31.173c0.098,0.004,0.203,0.009,0.301,0.014   C212.38,31.183,212.278,31.178,212.179,31.173 M211.704,31.153c0.074,0.003,0.145,0.006,0.219,0.009   C211.853,31.159,211.774,31.156,211.704,31.153 M211.143,31.131c0.112,0.004,0.226,0.008,0.337,0.013   C211.369,31.139,211.256,31.135,211.143,31.131 M210.607,31.111c0.117,0.004,0.233,0.008,0.35,0.013   C210.842,31.119,210.723,31.115,210.607,31.111 M210.148,31.095c0.09,0.003,0.185,0.006,0.275,0.009   C210.329,31.102,210.241,31.098,210.148,31.095 M209.602,31.078c0.125,0.004,0.244,0.007,0.369,0.011   C209.848,31.086,209.724,31.082,209.602,31.078 M209.075,31.063c0.115,0.003,0.229,0.006,0.344,0.01   C209.303,31.07,209.191,31.066,209.075,31.063 M208.588,31.051c0.104,0.002,0.211,0.005,0.314,0.008   C208.8,31.057,208.692,31.054,208.588,31.051 M208.049,31.039c0.134,0.003,0.264,0.006,0.397,0.009   C208.314,31.045,208.182,31.042,208.049,31.039 M207.511,31.029c0.131,0.002,0.259,0.005,0.39,0.007   C207.769,31.034,207.643,31.031,207.511,31.029 M207.034,31.021c0.12,0.002,0.242,0.004,0.363,0.006   C207.274,31.025,207.157,31.023,207.034,31.021 M206.487,31.014c0.139,0.002,0.283,0.004,0.422,0.006   C206.771,31.018,206.626,31.016,206.487,31.014 M205.937,31.008c0.147,0.001,0.297,0.002,0.445,0.004   C206.232,31.011,206.085,31.009,205.937,31.008 M205.47,31.005c0.142,0,0.289,0.001,0.431,0.003   C205.758,31.006,205.612,31.005,205.47,31.005 M204.936,31.002c0.147,0,0.298,0.001,0.446,0.002   C205.233,31.003,205.085,31.002,204.936,31.002 M204.385,31.001c0.153,0,0.309,0,0.461,0c-0.156,0-0.308,0-0.463,0 M204.383,31.001   c-95.758,0-173.379,77.619-173.379,173.368c0,0.003,0,0.004,0,0.007c0-95.747,77.621-173.375,173.381-173.375   C204.383,31.001,204.383,31.001,204.383,31.001"/>
	<path style="fill:#BA3D20;" d="M204.385,31.001c-95.76,0-173.381,77.628-173.381,173.379c0,0.002,0,0.01,0,0.016   c0,0.142,0,0.283,0.001,0.425c0,0.039,0,0.085,0,0.124c0,0.134,0.001,0.267,0.002,0.401c0,0.055,0.001,0.115,0.001,0.17   c0,0.088,0.001,0.176,0.002,0.265c0.001,0.107,0.002,0.209,0.003,0.315c0.001,0.064,0.001,0.131,0.002,0.196   c0.001,0.084,0.002,0.167,0.003,0.251c0,0.005,0,0.01,0,0.015c0.002,0.197,0.005,0.392,0.008,0.589c0,0.013,0,0.03,0.001,0.044   c0.685,42.935,16.972,82.079,43.446,112.003c0.207,0.228,0.41,0.459,0.612,0.685c1.664,1.862,3.365,3.686,5.107,5.474   c3.903,4.005,8,7.823,12.273,11.437c-25.531-30.202-40.921-69.241-40.921-111.879c0-95.751,77.621-173.37,173.381-173.37   c42.629,0,81.68,15.39,111.869,40.919c-28.747-33.992-70.353-56.764-117.322-60.812c-0.005,0-0.008,0-0.013-0.001   c-0.19-0.016-0.385-0.033-0.575-0.048c-0.013-0.001-0.025-0.002-0.038-0.003c-0.295-0.024-0.584-0.047-0.88-0.07   c-0.021-0.001-0.039-0.003-0.06-0.005c-0.175-0.013-0.349-0.026-0.524-0.04c-0.024-0.001-0.044-0.003-0.067-0.005   c-0.283-0.021-0.57-0.041-0.854-0.061c-0.037-0.003-0.073-0.005-0.11-0.008c-0.153-0.01-0.305-0.021-0.458-0.031   c-0.037-0.002-0.08-0.005-0.117-0.007c-0.092-0.006-0.182-0.012-0.275-0.018c-0.01-0.001-0.019-0.001-0.029-0.002   c-0.176-0.011-0.352-0.022-0.527-0.032c-0.047-0.003-0.09-0.006-0.138-0.008c-0.144-0.009-0.283-0.017-0.427-0.025   c-0.048-0.003-0.088-0.005-0.136-0.008c-0.086-0.005-0.169-0.009-0.255-0.014c-0.066-0.003-0.131-0.007-0.198-0.011   c-0.115-0.006-0.231-0.012-0.346-0.018c-0.066-0.003-0.134-0.007-0.2-0.01c-0.102-0.005-0.203-0.01-0.306-0.015   c-0.085-0.004-0.171-0.008-0.256-0.012c-0.067-0.003-0.136-0.006-0.204-0.009c-0.098-0.004-0.203-0.009-0.301-0.014   c-0.087-0.004-0.169-0.007-0.255-0.011c-0.074-0.003-0.145-0.006-0.219-0.009c-0.077-0.003-0.146-0.006-0.223-0.009   c-0.112-0.005-0.226-0.009-0.337-0.013c-0.061-0.002-0.125-0.005-0.186-0.007c-0.117-0.004-0.233-0.008-0.35-0.013   c-0.061-0.002-0.124-0.004-0.185-0.006c-0.09-0.003-0.185-0.006-0.275-0.009c-0.058-0.002-0.119-0.004-0.177-0.006   c-0.125-0.004-0.244-0.007-0.369-0.011c-0.061-0.001-0.121-0.003-0.182-0.005c-0.115-0.003-0.229-0.007-0.344-0.01   c-0.058-0.001-0.114-0.003-0.172-0.004c-0.104-0.002-0.21-0.005-0.314-0.008c-0.048-0.001-0.094-0.002-0.142-0.003   c-0.133-0.003-0.263-0.006-0.397-0.009c-0.048-0.001-0.1-0.002-0.148-0.003c-0.131-0.002-0.259-0.005-0.39-0.007   c-0.036,0-0.079-0.001-0.115-0.002c-0.12-0.002-0.242-0.004-0.363-0.006c-0.042,0-0.082-0.001-0.124-0.001   c-0.139-0.002-0.283-0.004-0.422-0.006c-0.036,0-0.071,0-0.106-0.001c-0.147-0.002-0.297-0.003-0.445-0.004   c-0.013,0-0.023,0-0.036,0c-0.142-0.001-0.289-0.002-0.431-0.003c-0.029,0-0.058,0-0.088-0.001c-0.147,0-0.298-0.001-0.446-0.002   c-0.029,0-0.06,0-0.09,0C204.694,31.001,204.538,31.001,204.385,31.001c-0.002,0-0.002,0-0.002,0"/>
	<path style="fill:#BA3D20;" d="M290.377,117.085L290.377,117.085l-0.002,0.003l-171.995,172l87.366,87.368   c5.401-0.041,10.74-0.321,16.021-0.86c69.969-6.951,127.688-55.521,148.079-120.61c5.01-15.97,7.771-32.94,7.9-50.529   L290.377,117.085"/>
	<polyline style="fill:#1CA4BA;" points="290.375,117.089 290.375,289.089 118.375,289.089 118.375,117.089 290.375,117.089  "/>
	<polyline style="fill:#157D8E;" points="273.276,192.09 161.695,201.319 172.786,240.299 221.585,289.089 290.375,289.089    290.375,209.189 273.276,192.09  "/>
	<polygon style="fill:#FFFFFF;" points="135.474,203.086 172.785,240.298 172.785,214.085 273.28,214.085 273.28,192.085    172.785,192.085 172.785,165.874  "/>
</g>
<g>
</g>
<g>
</g>
<g>
</g>
<g>
</g>
<g>
</g>
<g>
</g>
<g>
</g>
<g>
</g>
<g>
</g>
<g>
</g>
<g>
</g>
<g>
</g>
<g>
</g>
<g>
</g>
<g>
</g>
</svg>